<?xml version="1.0" encoding="utf-8"?>
<!-- Generator: Adobe Illustrator 26.0.1, SVG Export Plug-In . SVG Version: 6.00 Build 0)  -->
<svg version="1.1" id="Layer_1" xmlns="http://www.w3.org/2000/svg" xmlns:xlink="http://www.w3.org/1999/xlink" x="0px" y="0px"
	 viewBox="0 0 452 452" style="enable-background:new 0 0 452 452;" xml:space="preserve">
<style type="text/css">
	.st0{opacity:0.35;enable-background:new    ;}
	.st1{fill:#F2F2F2;}
	.st2{fill:#40396E;}
	.st3{fill:#FFC571;}
	.st4{fill:#96C362;}
	.st5{fill:#FF7575;}
	.st6{fill:#70BFFF;}
</style>
<path class="st0" d="M414.3,363.4V217.2c0-12.8-8.4-23.7-20-27.4c6.8-8,11-18.3,11.2-29.6l11.3-9.1c6-4.8,9.8-11.7,10.6-19.3
	s-1.3-15.2-6.1-21.2c-5.5-6.9-13.7-10.8-22.5-10.8c-6.5,0-12.9,2.2-18,6.3l-10.5,8.4c-3.7-0.9-7.5-1.4-11.4-1.4
	c-3.2,0-6.3,0.3-9.3,0.9l-29.1-29.1c-3.9-21.7-22.9-38.3-45.8-38.3c-25.7,0-46.5,20.9-46.5,46.5c0,1,0,1.9,0.1,2.8l-34,39.4
	c-1.3-0.1-2.5-0.2-3.8-0.2c-4.2,0-8.3,0.5-12.2,1.6l-25.8-18.8c-3-22.8-22.5-40.4-46.1-40.4c-25.7,0-46.5,20.9-46.5,46.5
	c0,1.1,0,2.3,0.1,3.4l-11.9,9.9c-12.2,10.2-13.8,28.4-3.7,40.6c2.8,3.4,6.3,6,10.2,7.8c-2.3,4.1-3.6,8.9-3.6,13.9V362
	c-12.7,3-22.2,14.4-22.2,28c0,15.9,12.9,28.8,28.8,28.8h345.5c15.9,0,28.8-12.9,28.8-28.8C432,378,424.7,367.7,414.3,363.4z"/>
<path class="st1" d="M405.4,354.5V208.3c0-12.8-8.4-23.7-20-27.4c6.8-8,11-18.3,11.2-29.6l11.3-9.1c6-4.8,9.8-11.7,10.6-19.3
	c0.9-7.6-1.3-15.2-6.1-21.2c-5.5-6.9-13.7-10.8-22.5-10.8c-6.5,0-12.9,2.2-18,6.3l-10.5,8.4c-3.7-0.9-7.5-1.4-11.4-1.4
	c-3.2,0-6.3,0.3-9.3,0.9L311.6,76c-3.9-21.7-22.9-38.3-45.8-38.3c-25.7,0-46.5,20.9-46.5,46.5c0,1,0,1.9,0.1,2.8l-34,39.4
	c-1.3-0.1-2.5-0.2-3.8-0.2c-4.2,0-8.3,0.5-12.2,1.6L143.6,109c-3-22.8-22.5-40.4-46.1-40.4C71.9,68.8,51,89.7,51,115.3
	c0,1.1,0,2.3,0.1,3.4l-11.9,9.9C27,138.8,25.4,157,35.5,169.2c2.8,3.4,6.3,6,10.2,7.8c-2.3,4.1-3.6,8.9-3.6,13.9v162.2
	c-12.7,3-22.2,14.4-22.2,28c0,15.9,12.9,28.8,28.8,28.8h345.5c15.9,0,28.8-12.9,28.8-28.8C423.1,369.2,415.8,358.9,405.4,354.5z"/>
<path class="st2" d="M124.1,184.2H70.9c-3.7,0-6.6,3-6.6,6.6v190.3c0,3.7,3,6.6,6.6,6.6h53.2c3.7,0,6.6-3,6.6-6.6V190.8
	C130.8,187.2,127.8,184.2,124.1,184.2z"/>
<rect x="77.6" y="197.5" class="st3" width="39.9" height="177"/>
<path class="st2" d="M208.3,246h-53.2c-3.7,0-6.6,3-6.6,6.6v128.5c0,3.7,3,6.6,6.6,6.6h53.2c3.7,0,6.6-3,6.6-6.6V252.6
	C214.9,248.9,211.9,246,208.3,246z"/>
<rect x="161.8" y="259.3" class="st4" width="39.9" height="115.2"/>
<path class="st2" d="M292.5,148.5h-53.2c-3.7,0-6.6,3-6.6,6.6V381c0,3.7,3,6.6,6.6,6.6h53.2c3.7,0,6.6-3,6.6-6.6V155.2
	C299.1,151.5,296.1,148.5,292.5,148.5z"/>
<rect x="245.9" y="161.8" class="st5" width="39.9" height="212.6"/>
<path class="st2" d="M376.6,201.7h-53.2c-3.7,0-6.6,3-6.6,6.6v172.8c0,3.7,3,6.6,6.6,6.6h53.2c3.7,0,6.6-3,6.6-6.6V208.3
	C383.3,204.7,380.3,201.7,376.6,201.7z"/>
<rect x="330.1" y="215" class="st6" width="39.9" height="159.5"/>
<path class="st2" d="M394.3,374.5H48.8c-3.7,0-6.6,3-6.6,6.6c0,3.7,3,6.6,6.6,6.6h345.5c3.7,0,6.6-3,6.6-6.6
	C401,377.4,398,374.5,394.3,374.5z"/>
<path class="st2" d="M89.3,124.3c-2.3-2.8-6.5-3.2-9.4-0.9l-26.6,22.2c-2.8,2.3-3.2,6.5-0.9,9.4c1.3,1.6,3.2,2.4,5.1,2.4
	c1.5,0,3-0.5,4.3-1.5l26.6-22.2C91.3,131.4,91.7,127.2,89.3,124.3z"/>
<path class="st2" d="M395.1,115.6c-2.3-2.9-6.5-3.3-9.3-1l-22.2,17.7c-2.9,2.3-3.3,6.5-1,9.3c1.3,1.6,3.2,2.5,5.2,2.5
	c1.5,0,2.9-0.5,4.1-1.5l22.2-17.7C396.9,122.6,397.4,118.5,395.1,115.6z"/>
<path class="st2" d="M167.9,154.2l-48.7-35.4c-3-2.2-7.1-1.5-9.3,1.5c-2.2,3-1.5,7.1,1.5,9.3l48.7,35.4c1.2,0.9,2.5,1.3,3.9,1.3
	c2.1,0,4.1-0.9,5.4-2.7C171.5,160.6,170.9,156.4,167.9,154.2z"/>
<path class="st2" d="M254.7,90.3c-2.8-2.4-7-2.1-9.4,0.7L190,155.3c-2.4,2.8-2.1,7,0.7,9.4c1.3,1.1,2.8,1.6,4.3,1.6
	c1.9,0,3.7-0.8,5-2.3l55.4-64.2C257.8,96.9,257.5,92.7,254.7,90.3z"/>
<path class="st2" d="M337,132.8L288.3,84c-2.6-2.6-6.8-2.6-9.4,0s-2.6,6.8,0,9.4l48.7,48.7c1.3,1.3,3,1.9,4.7,1.9s3.4-0.6,4.7-1.9
	C339.6,139.6,339.6,135.4,337,132.8z"/>
<circle class="st2" cx="97.5" cy="115.3" r="24.4"/>
<circle class="st3" cx="97.5" cy="115.3" r="11.1"/>
<circle class="st2" cx="181.7" cy="172.9" r="24.4"/>
<circle class="st3" cx="181.7" cy="172.9" r="11.1"/>
<path class="st2" d="M265.9,59.9c-13.4,0-24.4,10.9-24.4,24.4s10.9,24.4,24.4,24.4c13.4,0,24.4-10.9,24.4-24.4
	S279.3,59.9,265.9,59.9z"/>
<path class="st3" d="M265.9,73.2c-6.1,0-11.1,5-11.1,11.1s5,11.1,11.1,11.1s11.1-5,11.1-11.1S272,73.2,265.9,73.2z"/>
<path class="st2" d="M350,126.4c-13.4,0-24.4,10.9-24.4,24.4s10.9,24.4,24.4,24.4c13.4,0,24.4-10.9,24.4-24.4S363.5,126.4,350,126.4
	z"/>
<path class="st3" d="M350,139.7c-6.1,0-11.1,5-11.1,11.1s5,11.1,11.1,11.1s11.1-5,11.1-11.1C361.1,144.6,356.2,139.7,350,139.7z"/>
</svg>
