<?xml version="1.0" encoding="utf-8"?>
<!-- Generator: Adobe Illustrator 26.0.1, SVG Export Plug-In . SVG Version: 6.00 Build 0)  -->
<svg version="1.1" id="Layer_1" xmlns="http://www.w3.org/2000/svg" xmlns:xlink="http://www.w3.org/1999/xlink" x="0px" y="0px"
	 viewBox="0 0 452 452" style="enable-background:new 0 0 452 452;" xml:space="preserve">
<style type="text/css">
	.st0{opacity:0.3;enable-background:new    ;}
	.st1{fill:#F2F2F2;}
	.st2{fill:#40396E;}
	.st3{fill:#D47F56;}
	.st4{fill:#FFB789;}
	.st5{fill:#A0675E;}
	.st6{fill:#707CC0;}
	.st7{fill:#5F65A3;}
</style>
<path id="shadow" class="st0" d="M381.95,376.02c-0.02-98.68,0.01-197.36-0.01-296.04c0.09-9.25-3.96-19.55-12.36-24.14l0.44,1.3
	c-4.91-9.64-15.11-16.45-26.04-16.44c-15.26-0.08-30.51-0.01-45.77-0.03c0.11-5.47-1.47-10.9-4.36-15.52
	c-2.23-3.09-4.51-6.79-8.34-8C279.28,5.96,62.11,392.82,70.69,398.07c4.37,7.55,12.82,12.23,21.38,13.07
	c9.14,0.65,18.36-0.38,27.48,0.53c47.48,12.32,94.93,24.81,142.39,37.2c13,3.47,27.65-3.44,33.36-15.59
	c3.55-6.75,3.03-14.55,3.03-21.92c18.19-0.1,36.39,0.04,54.59-0.07c11.89,0.02,23.18-8.02,27.18-19.19
	C382.11,386.99,381.99,381.42,381.95,376.02z"/>
<path id="outline" class="st1" d="M372.9,365.02c0-97.69-0.02-195.38,0-293.08c0.19-5.09-0.87-10.13-2.88-14.8
	c-4.91-9.64-15.11-16.45-26.04-16.44c-15.26-0.08-30.51-0.01-45.77-0.03c-2.98,0-5.96,0-8.93,0c0.16-7.96,0.39-16.39-3.77-23.52
	c-6.23-11.19-20.17-17.31-32.6-14c-46,11.96-91.96,24.05-137.94,36.06c-7.39,2.54-15.28,1.07-22.92,1.45
	c-7.75-0.39-15.94,0.4-22.47,4.98c-8.02,5.31-13.13,14.71-13.06,24.35c-0.03,100.99-0.03,201.99,0,302.98
	c-0.09,10.12,5.59,19.85,14.17,25.1c13.82,8.37,30.66,1.04,45.34,5.93c44.31,11.68,88.68,23.16,133,34.84
	c4.17,1.16,8.48,2.1,12.84,1.78c10.27-0.58,19.9-7.03,24.35-16.31c3.61-6.77,3.09-14.63,3.06-22.04
	c18.24-0.02,36.48,0.04,54.73-0.03c11.61-0.03,22.67-7.73,26.81-18.56C373.33,377.79,372.89,371.27,372.9,365.02z"/>
<path class="st2" d="M350.3,372.04c0.01-98.36,0-196.72,0.01-295.08c-0.03-2.67,0.13-5.35-0.15-8.01c-0.4-3.42-3.8-5.88-7.15-5.66
	c-25.44-0.05-50.89,0-76.33-0.03c-0.04-10.42,0.04-20.85-0.02-31.27c0.1-2.73-1.48-5.44-4-6.52c-2.86-1.35-5.94,0.09-8.78,0.72
	c-46.66,12.27-93.34,24.47-140.02,36.65c-9.54,1.06-19.21,0-28.79,0.54c-3.68,0.25-6.33,3.94-5.97,7.51
	c0,100.39,0,200.78,0.01,301.17c-0.46,3.91,2.82,7.76,6.83,7.58c8.02,0.09,16.04-0.01,24.06,0.01c2.76-0.02,5.42,0.86,8.07,1.55
	c46.61,12.17,93.2,24.41,139.81,36.56c4.28,1.54,9.05-2.21,8.77-6.67c0.08-10.48-0.01-20.95,0.03-31.42
	c25.45-0.02,50.9,0.01,76.34-0.01C347.18,380.02,350.78,376.16,350.3,372.04z"/>
<path class="st3" d="M336.76,76.96c-20.34-0.2-40.68-0.04-61.01-0.08c-5.59-0.13-11.19,0.23-16.77-0.16
	c-2.78-0.13-4.46-2.54-5.86-4.63c0.04-10.56,0.02-21.11,0.01-31.67c-46.7,12.19-93.35,24.59-140.12,36.5
	c-6.78-0.1-13.56-0.04-20.34-0.04c-0.02,96.41-0.02,192.83,0,289.24c6.78-0.01,13.57,0.09,20.34-0.06
	c46.78,11.86,93.42,24.31,140.12,36.46c0-10.5,0.05-21.01-0.04-31.51c1.32-1.92,2.66-4.29,5.21-4.63
	c5.82-0.61,11.68-0.07,17.52-0.26c15.03,0.03,30.07,0.01,45.1,0c5.28,0,10.55,0.06,15.82-0.05
	C336.75,269.7,336.72,173.33,336.76,76.96z"/>
<path class="st4" d="M253.12,94.93c0-7.61,0.01-15.23,0-22.84c0.04-10.56,0.02-21.11,0.01-31.67
	c-46.7,12.19-93.35,24.59-140.12,36.5c-0.02,96.38-0.02,192.76,0,289.14c46.78,11.86,93.42,24.31,140.12,36.46
	c0-10.5,0.05-21.01-0.04-31.51C253.16,278.98,253.1,186.96,253.12,94.93z"/>
<path class="st5" d="M275.75,76.88c-5.59-0.13-11.19,0.23-16.77-0.16c-2.78-0.13-4.46-2.54-5.86-4.63c0.01,7.61,0,15.23,0,22.84
	c7.55-0.01,15.09-0.01,22.64,0C275.71,88.91,275.68,82.89,275.75,76.88z"/>
<path class="st6" d="M320.91,94.94c-15.05-0.04-30.1-0.01-45.15-0.01c-7.55-0.01-15.09-0.01-22.64,0
	c-0.02,92.03,0.04,184.05-0.03,276.08c1.32-1.92,2.66-4.29,5.21-4.63c5.82-0.61,11.68-0.07,17.52-0.26c15.03,0.03,30.07,0.01,45.1,0
	C320.91,275.73,320.94,185.34,320.91,94.94z"/>
<path class="st7" d="M275.76,94.93c-7.55-0.01-15.09-0.01-22.64,0c-0.02,92.03,0.04,184.05-0.03,276.08
	c1.32-1.92,2.66-4.29,5.21-4.63c5.82-0.61,11.68-0.07,17.52-0.26C275.65,275.72,275.78,185.32,275.76,94.93z"/>
<path class="st2" d="M214.38,195.46c-3.99,1.85-6.58,6.15-6.44,10.54c-0.04,10.33-0.04,20.65,0.01,30.98
	c-0.25,5.72,4.4,11.11,10.15,11.53c6.15,0.79,12.25-4.39,12.34-10.61c0.13-10.95,0.13-21.91,0-32.85
	C230.41,197.32,221.21,191.89,214.38,195.46z"/>
</svg>
