<?xml version="1.0" encoding="utf-8"?>
<!-- Generator: Adobe Illustrator 26.0.1, SVG Export Plug-In . SVG Version: 6.00 Build 0)  -->
<svg version="1.1" id="Layer_1" xmlns="http://www.w3.org/2000/svg" xmlns:xlink="http://www.w3.org/1999/xlink" x="0px" y="0px"
	 viewBox="0 0 452 452" style="enable-background:new 0 0 452 452;" xml:space="preserve">
<style type="text/css">
	.st0{opacity:0.35;enable-background:new    ;}
	.st1{fill:#F2F2F2;}
	.st2{fill:#40396E;}
	.st3{fill:#707CC0;}
	.st4{fill:#9AA2E6;}
</style>
<path class="st0" d="M433.92,288c0.25-9.89-4.57-20.16-13.25-25.24c-2.42-3.8-5.62-7.12-9.4-9.59c0.22-13.81-0.05-27.62,0.14-41.43
	c8.82-2.39,16.61-8.63,20.13-17.16c3.1-6.76,2.3-14.34,2.38-21.55c-0.07-7.67,0.13-15.35-0.08-23.02
	c-0.27-8.81-4.99-17.07-11.93-22.37c0,0.39-0.01,1.16-0.02,1.55c-3.02-5.43-7.46-10.15-13.04-12.98l0.96,0.42
	c-2.66-12.87-9.21-24.76-18.15-34.33c-24.2-21.38-46.65,53.84-47.86,53.31c-2.55-3.32-149.1,170.76-148.32,172.26
	c7.19,13.87-119.9,78.67-106.24,85.95c4.59,5.5,10.35,10.95,17.71,12.13c6,1.21,12.36,0.48,17.93-2.07
	c11.05-5.01,20.64-12.78,28.71-21.76c1.71,1.48,3.41,2.99,5.24,4.34c0.71,1.4,1.52,2.82,2.77,3.83
	c6.17,5.43,12.98,10.23,20.47,13.66c7.93,3.66,17.45,3.35,25.23-0.55c10.5-5.13,20.02-12.39,27.48-21.4
	c2.25,1.99,4.57,3.91,7.03,5.65l-1.79-0.54c5.85,6.59,13.3,11.61,21.04,15.73c7.47,4.07,16.68,4.91,24.64,1.82
	c11.92-4.79,21.95-13.19,30.69-22.43c0.62,0.53,1.84,1.58,2.45,2.11c6.74,8.39,15.89,14.67,25.48,19.42
	c7.89,3.76,17.46,3.68,25.31-0.18c9.69-4.67,18.56-11.13,25.76-19.14c9.29-10.12,15.13-23.31,15.94-37.07
	c11.98-3.04,21.71-13.8,22.44-26.29C434.12,310.06,433.82,299.02,433.92,288z"/>
<path class="st1" d="M424.88,278.94c0.11-5.66-1.37-11.29-4.21-16.18c-2.42-3.8-5.62-7.12-9.4-9.59c-2.78-1.74-5.87-2.87-8.96-3.89
	c0-15.52,0-31.04,0-46.57c12.14-3.02,21.86-14.09,22.46-26.71c0.25-11.02,0.05-22.05,0.1-33.07c0.12-4.76-1.19-9.38-2.98-13.74
	c-3.02-5.43-7.46-10.15-13.04-12.98c-2.28-1.06-4.67-1.86-7.06-2.64c-1.53-12.07-6.22-23.62-13.38-33.44
	c-6.88-8.98-15.57-16.67-25.64-21.88c-8.33-4.61-18.82-5.02-27.37-0.78c-11.07,5.28-20.57,13.54-27.94,23.3
	c-6.86-9.25-15.68-17.13-25.92-22.45c-8.18-4.58-18.5-5.12-27-1.08c-11.28,5.25-20.97,13.62-28.44,23.52
	c-7.06-9.49-16.17-17.58-26.78-22.88c-8.66-4.6-19.47-4.42-28.05,0.26c-10.45,5.34-19.49,13.26-26.53,22.62
	c-5.44-7.33-12.09-13.78-19.72-18.8c-6.24-4.13-13.33-7.68-21-7.46c-8.92-0.06-16.9,4.68-23.94,9.69
	c-16.02,11.59-27.51,29.63-29.83,49.4c-12.61,2.76-22.71,14.36-23.07,27.36c-0.11,11.37-0.08,22.75-0.01,34.12
	c0.19,12.95,10.06,24.61,22.55,27.61c0,15.55,0,31.09,0,46.64c-12.51,2.98-22.38,14.67-22.56,27.63
	c-0.06,11.36-0.09,22.73,0.02,34.09c0.37,12.83,10.22,24.31,22.61,27.23c0.5,8.22,2.58,16.36,6.4,23.67
	c7.19,13.87,19.39,24.6,33.05,31.88c8.59,4.63,19.35,4.93,28.03,0.36c10.45-5.12,19.78-12.47,27.31-21.33
	c2.8,3.28,5.77,6.41,9.01,9.27c1.71,1.48,3.41,2.99,5.24,4.34c5.89,4.04,11.95,8.19,18.93,10.12c6.53,1.69,13.63,1,19.74-1.87
	c10.91-5.12,20.64-12.68,28.44-21.85c2.75,3.22,5.68,6.3,8.84,9.14c2.25,1.99,4.57,3.91,7.03,5.65c5.25,3.37,10.52,6.94,16.57,8.73
	c6.93,2,14.55,1.27,21.01-1.92c10.7-5.11,20.24-12.58,27.91-21.61c2.79,3.34,5.85,6.47,9.09,9.38c0.62,0.53,1.84,1.58,2.45,2.11
	c5.36,4.15,11.03,8,17.25,10.74c7.72,3.41,16.9,3.18,24.47-0.53c9.7-4.67,18.59-11.13,25.79-19.15
	c9.28-10.12,15.17-23.32,15.91-37.08c12.04-2.97,21.72-13.84,22.49-26.33C425.05,300.98,424.79,289.95,424.88,278.94z"/>
<path class="st2" d="M402.27,308.92c0-10.3,0.07-20.61-0.04-30.91c0.14-3.41-2.73-6.6-6.15-6.73c-5.45-0.25-10.92,0.01-16.37-0.08
	c0-30.14,0-60.27,0-90.4c5.44-0.08,10.89,0.16,16.33-0.08c3.41-0.11,6.31-3.26,6.19-6.67c0.12-10.34,0.04-20.68,0.04-31.02
	c0.32-3.65-2.56-7.32-6.32-7.35c-5.41-0.25-10.83,0.01-16.25-0.09c-0.11-7.57,0.48-15.22-0.96-22.7
	c-2.53-13.58-11.48-25.42-23.09-32.67c-2.96-1.86-6.57-4.3-10.16-2.51c-12.74,6.24-23.31,17.59-27.21,31.39
	c-2.57,8.6-1.75,17.65-1.88,26.49c-6.02,0.02-12.04,0.01-18.05,0.01c-0.13-7.93,0.51-15.98-1.18-23.79
	c-2.77-13.05-11.46-24.36-22.63-31.44c-3.11-1.98-6.99-4.58-10.72-2.52c-12.55,6.29-22.97,17.47-26.86,31.12
	c-2.61,8.63-1.78,17.74-1.93,26.63c-6.01,0-12.02,0-18.03,0c-0.16-8.62,0.63-17.44-1.7-25.86c-3.6-13.77-13.78-25.32-26.33-31.77
	c-2.14-1.19-4.77-1.13-6.9,0.05c-12.28,6.32-22.5,17.29-26.4,30.7c-2.69,8.7-1.86,17.91-1.99,26.88c-6.02,0-12.04,0.01-18.05-0.01
	c-0.13-7.57,0.48-15.24-0.97-22.73c-2.49-13.27-11.1-24.92-22.37-32.17c-3.16-1.96-6.92-4.84-10.8-3.01
	c-12.84,6.25-23.47,17.7-27.34,31.61c-2.51,8.54-1.69,17.52-1.82,26.3c-5.43,0.1-10.87-0.16-16.29,0.09
	c-3.75,0.04-6.63,3.68-6.3,7.32c-0.01,10.35-0.09,20.71,0.03,31.06c-0.12,3.45,2.85,6.61,6.3,6.67c5.41,0.23,10.83-0.01,16.25,0.08
	c0.01,30.13,0,60.25,0,90.38c-5.41,0.09-10.83-0.15-16.23,0.08c-3.47,0.05-6.45,3.23-6.32,6.69c-0.12,10.33-0.04,20.67-0.04,31.01
	c-0.33,3.64,2.54,7.29,6.29,7.35c5.43,0.25,10.87-0.01,16.3,0.09c0.47,10.81-1.56,22.2,2.83,32.47
	c4.69,11.16,14.32,19.52,24.87,25.02c2.37,1.41,5.32,1.19,7.65-0.16c10.63-5.5,20.4-13.83,25.14-25.05
	c4.38-10.2,2.35-21.53,2.82-32.28c6.01-0.02,12.03-0.01,18.05-0.01c0.19,8.13-0.48,16.31,0.52,24.4
	c2.08,13.07,11.58,23.7,22.54,30.45c3.36,2.04,7.39,5.04,11.43,2.88c10.95-5.38,20.97-13.84,25.91-25.22
	c4.5-10.25,2.42-21.68,2.92-32.51c6.01,0,12.02,0,18.03,0c0.46,10.35-1.39,21.14,2.29,31.09c4.48,11.94,14.63,20.87,25.75,26.57
	c2.13,1.16,4.75,1.04,6.86-0.1c10.85-5.49,20.82-13.94,25.64-25.34c4.31-10.2,2.32-21.49,2.78-32.22c6.02,0,12.03-0.01,18.05,0.01
	c0.13,7.49-0.31,15,0.27,22.48c1.38,13.92,11.37,25.38,22.92,32.44c3.24,1.91,7.02,4.82,10.95,2.95
	c11.1-5.33,21.25-13.87,26.25-25.35c4.5-10.26,2.45-21.69,2.91-32.52c5.43-0.1,10.86,0.16,16.28-0.09
	C399.75,316.27,402.61,312.57,402.27,308.92z"/>
<path class="st3" d="M388.75,284.84c-5.55-0.3-11.1,0.12-16.64-0.22c-3.76-0.18-6.33-4.02-5.96-7.61c0-34.01-0.01-68.03,0-102.04
	c-0.36-3.56,2.17-7.36,5.9-7.59c5.55-0.34,11.11,0.03,16.67-0.15c-0.01-6.03,0-12.05,0-18.08c-5.26-0.11-10.53,0.13-15.78-0.07
	c-3.36,0.16-6.54-2.63-6.68-5.99c-0.49-8.62,0.41-17.28-0.52-25.87c-1.4-10.75-8.48-20.12-17.59-25.68
	c-9.17,5.88-16.72,15.23-17.86,26.36c-0.74,9.01-0.15,18.08-0.39,27.12c-1.81,2.01-3.86,4.37-6.88,4.07
	c-10.35,0.09-20.71,0.05-31.06,0.02c-3.48,0.26-6.92-2.49-7.05-6.04c-0.5-8.53,0.38-17.12-0.5-25.63
	c-1.32-10.83-8.44-20.27-17.59-25.9c-8.25,5.31-15.23,13.28-17.34,23.07c-1.91,9.98-0.68,20.23-0.89,30.32
	c-1.79,1.92-3.66,4.36-6.61,4.14c-10.33,0.16-20.68,0.03-31.02,0.06c-3.68,0.39-7.39-2.48-7.45-6.27
	c-0.43-8.63,0.47-17.33-0.54-25.93c-1.56-10.75-8.68-20.54-18.26-25.56l0.07,0.68c-9.34,5.91-16.47,15.8-17.41,27.01
	c-0.51,8.58-0.11,17.19-0.14,25.78c-1.7,1.8-3.35,4.28-6.15,4.19c-10.69,0.23-21.41,0.1-32.11,0.06c-3.38,0.19-6.64-2.58-6.79-6
	c-0.51-8.73,0.46-17.51-0.58-26.21c-1.46-10.62-8.52-19.8-17.5-25.35c-8.91,5.71-16.3,14.64-17.77,25.39
	c-0.99,9.03-0.32,18.15-0.42,27.22c-1.32,2.2-2.95,4.79-5.84,4.86c-5.59,0.38-11.19-0.01-16.79,0.15c0,6.02,0.01,12.04-0.01,18.06
	c5.54,0.22,11.09-0.17,16.62,0.17c2.84-0.01,4.48,2.51,5.99,4.53c-0.13,36.34,0.03,72.69-0.08,109.03
	c-1.76,1.46-3.37,3.59-5.85,3.68c-5.55,0.33-11.12-0.04-16.67,0.16c0.01,6.02,0,12.04,0,18.07c5.57,0.15,11.14-0.23,16.7,0.14
	c2.94,0.03,4.6,2.64,5.93,4.88c-0.04,9.36-0.22,18.74,0.02,28.1c0.45,10.93,9.03,19.37,17.94,24.59
	c6.29-4.11,12.55-8.92,15.88-15.85c3.17-6.07,2.17-13.12,2.31-19.7c0.16-5.64-0.33-11.31,0.24-16.94c0.61-3.52,4.3-5.56,7.69-5.21
	c10.35,0.09,20.71-0.15,31.06,0.11c2.81-0.11,4.48,2.38,6.18,4.19c0,9.96-0.3,19.92,0.08,29.87c1.06,10.46,9.26,18.42,17.88,23.51
	c8.23-5.14,16.62-12.39,17.97-22.58c0.71-9.59-0.06-19.24,0.36-28.85c0.06-3.79,3.78-6.63,7.45-6.24
	c10.35,0.03,20.71-0.1,31.05,0.06c2.94-0.21,4.8,2.24,6.57,4.17c-0.07,9.61-0.28,19.23-0.02,28.84c0.61,10.93,9.06,19.47,18.1,24.59
	c8.17-5.24,16.54-12.43,17.87-22.64c0.61-9.26,0.01-18.56,0.28-27.84c-0.03-2.18,0.75-4.41,2.55-5.74c2.11-1.78,5.06-1.38,7.63-1.48
	c9.65,0.19,19.32-0.18,28.97,0.16c2.65-0.01,4.26,2.31,5.94,4c0.13,9.68-0.11,19.36,0.12,29.03c0.44,10.92,9.04,19.28,17.88,24.54
	c8.19-5.15,16.55-12.35,17.96-22.49c0.74-9.68-0.09-19.42,0.39-29.11c0.12-3,2.69-5.74,5.7-5.95c5.58-0.4,11.17,0,16.76-0.16
	C388.72,296.84,388.69,290.84,388.75,284.84z M167.24,280.73c-1.83,1.58-3.49,3.92-6.16,3.88c-9.36,0.37-18.73-0.06-28.1,0.18
	c-2.97-0.14-6.54,0.4-8.84-1.94c-1.97-1.71-2.04-4.48-2.1-6.87c0.05-30.99,0.02-61.97,0.02-92.95c0.06-3.82-0.39-7.72,0.5-11.47
	c1.01-3.1,4.38-4.49,7.44-4.3c10.02,0.03,20.05-0.07,30.07,0.04c3.06-0.31,5.18,2.04,7.17,3.96
	C167.09,207.75,167.09,244.24,167.24,280.73z M248.61,279.94c-1.41,2.41-3.52,4.87-6.59,4.71c-9.34,0.28-18.68-0.07-28.02,0.14
	c-2.95-0.11-6.49,0.32-8.67-2.11c-1.83-1.71-1.86-4.36-1.93-6.67c0.06-31,0.02-62,0.02-93c0.06-3.77-0.37-7.61,0.46-11.31
	c1-3.45,4.83-4.71,8.08-4.46c10.02,0.12,20.05-0.13,30.07,0.11c3.07-0.16,5.16,2.3,6.58,4.69
	C248.39,208.01,248.39,243.98,248.61,279.94z M323,284.69c-10.01,0.14-20.03,0-30.04,0.06c-3.04,0.2-6.46-1.01-7.59-4.08
	c-0.95-3.48-0.56-7.14-0.6-10.71c0.06-31.66-0.02-63.33,0.03-94.99c-0.46-4.14,2.94-8.04,7.18-7.67
	c10.33-0.06,20.68-0.09,31.01,0.02c3.17-0.25,5.47,2.13,6.95,4.65c0.01,36.02,0.01,72.04,0,108.06
	C328.46,282.55,326.16,284.91,323,284.69z"/>
<g id="_x23_9aa2e6ff">
	<path class="st4" d="M86.33,116.92c1.47-10.75,8.86-19.68,17.77-25.39c-0.38,89.67,0.08,179.36-0.23,269.03
		c-8.91-5.22-17.49-13.66-17.94-24.59c-0.24-9.36-0.06-18.74-0.02-28.1c-0.06-8.98-0.01-17.96-0.11-26.93
		c0.11-36.34-0.05-72.69,0.08-109.03c-0.02-9.26-0.03-18.51,0.03-27.77C86.01,135.07,85.34,125.95,86.33,116.92z"/>
	<path class="st4" d="M249.48,114.61c2.11-9.79,9.09-17.76,17.34-23.07c-0.34,89.66-0.03,179.33-0.15,268.99
		c-9.04-5.12-17.49-13.66-18.1-24.59c-0.26-9.61-0.05-19.23,0.02-28.84c0-9.06,0.01-18.11,0.02-27.16
		c-0.22-35.96-0.22-71.93,0-107.9c-0.01-9.03-0.02-18.07-0.02-27.11C248.8,134.84,247.57,124.59,249.48,114.61z"/>
	<path class="st4" d="M330.29,117.9c1.14-11.13,8.69-20.48,17.86-26.36c-0.35,89.67,0.12,179.35-0.24,269.02
		c-8.84-5.26-17.44-13.62-17.88-24.54c-0.23-9.67,0.01-19.35-0.12-29.03c0.09-8.98,0.05-17.97,0.03-26.96
		c0.01-36.02,0.01-72.04,0-108.06c0.02-8.99,0.06-17.97-0.04-26.95C330.14,135.98,329.55,126.91,330.29,117.9z"/>
	<path class="st4" d="M167.37,119.06c0.94-11.21,8.07-21.1,17.41-27.01c0.45,3.96,0.74,7.95,0.57,11.94
		c-0.16,85.51,0.17,171.04-0.16,256.55c-8.62-5.09-16.82-13.05-17.88-23.51c-0.38-9.95-0.08-19.91-0.08-29.87
		c0-8.81,0-17.62,0.01-26.43c-0.15-36.49-0.15-72.98,0-109.47c-0.01-8.8-0.01-17.61-0.01-26.42
		C167.26,136.25,166.86,127.64,167.37,119.06z"/>
</g>
<g id="top">
	<path class="st1" d="M135.63,180.8c6.01,0,12.01,0.01,18.02-0.01c0.06,30.13,0,60.27,0.03,90.4c-6.02,0.01-12.03,0.01-18.05,0.01
		C135.63,241.07,135.63,210.93,135.63,180.8z"/>
	<path class="st1" d="M216.99,180.8c6.01,0,12.03,0,18.04,0c0.01,30.13,0.01,60.27,0,90.4c-6.01,0-12.03,0-18.04,0
		C216.99,241.07,216.99,210.93,216.99,180.8z"/>
	<path class="st1" d="M298.34,180.81c6.02-0.01,12.04-0.01,18.06-0.01c0,30.13,0,60.26,0,90.4c-6.01,0-12.01-0.02-18.01,0.02
		C298.28,241.08,298.38,210.95,298.34,180.81z"/>
</g>
</svg>
