<?xml version="1.0" encoding="utf-8"?>
<!-- Generator: Adobe Illustrator 26.0.1, SVG Export Plug-In . SVG Version: 6.00 Build 0)  -->
<svg version="1.1" id="Layer_1" xmlns="http://www.w3.org/2000/svg" xmlns:xlink="http://www.w3.org/1999/xlink" x="0px" y="0px"
	 viewBox="0 0 452 452" style="enable-background:new 0 0 452 452;" xml:space="preserve">
<style type="text/css">
	.st0{opacity:0.3;}
	.st1{fill:#F2F2F2;}
	.st2{fill:#40396E;}
	.st3{fill:#739F4D;}
	.st4{fill:#407845;}
	.st5{fill:#70BFFF;}
	.st6{fill:#96C362;}
	.st7{fill:#EF8630;}
	.st8{fill:#F9B84F;}
	.st9{fill:#D47F56;}
	.st10{fill:#FFB789;}
</style>
<path class="st0" d="M415.74,124.37c-2.12-2.96-4.29-6.55-8.05-7.51c-3.12-5.54-361.01,224.74-351.83,229.75
	c1.33,4.7,6.2,7.18,10.09,9.57c51.66,27,103.36,53.93,155.03,80.92c8.58,4.71,19.44,4.71,28.05,0.05
	c49.58-25.8,99.1-51.7,148.66-77.53c5.1-2.67,10.5-5.11,14.49-9.39c5.48-5.6,8.32-13.46,8.17-21.25c0.01-62.67,0.01-125.34,0-188.01
	C420.39,135.15,418.92,129.28,415.74,124.37z"/>
<path class="st1" d="M407.69,116.86c-3.12-5.54-8.05-9.89-13.73-12.68c-49.35-25.71-98.66-51.47-148-77.19
	c-4.5-2.31-8.93-5.01-13.95-5.99c-6.57-1.42-13.62-0.44-19.57,2.69C162.1,49.95,111.76,76.22,61.42,102.48
	c-4.47,2.3-9.12,4.58-12.58,8.34c-5.45,5.57-8.31,13.39-8.16,21.14c0.01,63.01-0.04,126.02,0.03,189.02
	c-0.07,10.48,5.97,20.62,15.15,25.63c52.22,27.25,104.45,54.51,156.68,81.74c8.51,4.5,19.15,4.28,27.58-0.3
	c51.71-26.95,103.41-53.93,155.09-80.92c9.67-4.89,16.16-15.3,16.08-26.17c0.06-62.99,0.01-125.98,0.03-188.97
	C411.37,126.73,410.13,121.51,407.69,116.86z"/>
<path class="st2" d="M388.71,131.99c0.29-3.12-1.54-6.07-4.38-7.33C333.1,97.9,281.83,71.2,230.6,44.43
	c-2.18-1.19-4.87-2.13-7.24-0.88c-51.75,26.8-103.33,53.93-155.05,80.79c-3.09,1.21-5.38,4.21-5.03,7.63
	c0,62.7,0,125.41,0.01,188.11c-0.26,3.04,1.5,5.97,4.3,7.18c51.5,26.85,102.98,53.73,154.48,80.59c2.38,1.52,5.42,1.5,7.83,0.05
	c51.49-26.83,102.96-53.7,154.43-80.56c2.79-1.25,4.64-4.14,4.38-7.22C388.73,257.41,388.72,194.7,388.71,131.99z"/>
<g id="left_wall">
	<path class="st3" d="M226,57.38c-49.69,25.95-99.39,51.88-149.1,77.78c-0.11,60.73-0.09,121.46-0.01,182.19l0.55-0.28
		c49.51-25.73,98.92-51.67,148.44-77.38C226.15,178.93,225.93,118.15,226,57.38z"/>
	<path class="st4" d="M194.3,113.4c-1.21,0.41-2.4,0.88-3.57,1.4c-28.86,14.51-57.8,28.88-86.66,43.38
		c-0.18,31.63-0.14,63.26-0.03,94.89c30.09-14.96,60.13-30,90.16-45.07C194.52,176.47,194.33,144.93,194.3,113.4z"/>
	<path class="st5" d="M117.59,167.16c-0.16,21.12-0.05,42.23-0.06,63.35c21.12-10.48,42.2-21.05,63.27-31.62
		c0-21.09,0-42.17,0-63.26C159.73,146.14,138.7,156.74,117.59,167.16z"/>
</g>
<g id="right_wall">
	<path class="st6" d="M375.14,135.15c-49.73-25.9-99.39-51.92-149.14-77.77c-0.07,60.77,0.15,121.55-0.12,182.31
		c10.58,5.55,21.17,11.08,31.76,16.59c4.48,2.36,9.02,4.61,13.44,7.09c19.48,10.39,39.08,20.6,58.76,30.62
		c4.61,2.22,9.11,4.66,13.64,7.05c10.31,5.35,20.52,10.93,30.97,16.04l0.68,0.3C375.19,256.63,375.17,195.89,375.14,135.15z"/>
	<path class="st7" d="M343.46,153.66c-28.57-15.08-57.14-30.17-85.78-45.12c-0.1,49.25-0.01,98.5-0.04,147.74
		c4.48,2.36,9.02,4.61,13.44,7.09c19.48,10.39,39.08,20.6,58.76,30.62c4.61,2.22,9.11,4.66,13.64,7.05
		C343.54,251.91,343.57,202.78,343.46,153.66z"/>
	<path class="st8" d="M329.87,167.21c-19.53-10.49-38.93-21.26-58.63-31.41c-0.17,42.52,0.15,85.05-0.16,127.57
		c19.48,10.39,39.08,20.6,58.76,30.62C330.06,251.73,330,209.47,329.87,167.21z"/>
	<path class="st9" d="M281,216.72c5.41,1.39,8.85-5.06,8.23-9.67c0-4.42-4.13-9.82-8.96-7.65
		C273.95,202.75,274.18,214.09,281,216.72z"/>
</g>
<g id="floor">
	<path class="st10" d="M343.48,301.04c-4.53-2.39-9.03-4.83-13.64-7.05c-19.68-10.02-39.28-20.23-58.76-30.62
		c-4.42-2.48-8.96-4.73-13.44-7.09c-10.59-5.51-21.18-11.04-31.76-16.59c-49.52,25.71-98.93,51.65-148.44,77.38
		c49.48,25.91,99.06,51.66,148.56,77.56c49.49-25.83,99.07-51.51,148.45-77.55C364,311.97,353.79,306.39,343.48,301.04z"/>
	<path class="st9" d="M305.42,317.49c-29.52-15.35-58.92-30.97-88.48-46.24c-23.47,12.39-46.91,24.84-70.38,37.24
		c-2.03,1.05-4.16,1.99-5.88,3.54c31.36,16.7,62.93,33,94.37,49.54c25.54-13.5,51.15-26.87,76.55-40.62
		C309.59,319.72,307.53,318.55,305.42,317.49z"/>
</g>
</svg>
