<?xml version="1.0" encoding="utf-8"?>
<!-- Generator: Adobe Illustrator 26.0.1, SVG Export Plug-In . SVG Version: 6.00 Build 0)  -->
<svg version="1.1" id="Layer_1" xmlns="http://www.w3.org/2000/svg" xmlns:xlink="http://www.w3.org/1999/xlink" x="0px" y="0px"
	 viewBox="0 0 452 452" style="enable-background:new 0 0 452 452;" xml:space="preserve">
<style type="text/css">
	.st0{opacity:0.3;}
	.st1{fill:#F2F2F2;}
	.st2{fill:#F4665C;}
	.st3{fill:#D9EEFF;}
	.st4{fill:#B73B3B;}
	.st5{fill:#70BFFF;}
	.st6{fill:#40396E;}
</style>
<path class="st0" d="M317.8,259.6c0-6.7,0-135.9,0-142.7c0-10.4-5.4-19.4-13.6-24.6c-2.3-34.8-31.3-62.5-66.7-62.5
	c-36.9,0-66.9,30-66.9,66.9v146.2c-27.9,20.4-44.6,52.7-44.6,88.1c0,60.3,49,109.3,109.3,109.3c60.3,0,109.3-49,109.3-109.3
	C344.6,304.6,334.8,279.2,317.8,259.6z"/>
<path class="st1" d="M308.9,250.7c0-6.7,0-135.9,0-142.7c0-10.4-5.4-19.4-13.6-24.6C293,48.6,264,21,228.6,21
	c-36.9,0-66.9,30-66.9,66.9v146.2c-27.9,20.4-44.6,52.7-44.6,88.1c0,60.3,49,109.3,109.3,109.3s109.3-49,109.3-109.3
	C335.7,295.7,325.9,270.3,308.9,250.7z"/>
<path class="st2" d="M266.5,252.7c0-62.2,0-157.2,0-164.8c0-20.9-17-37.9-37.9-37.9s-37.9,17-37.9,37.9c0,14.4,0,96,0,162.4
	c-26.4,13.2-44.6,40.4-44.6,71.9c0,44.4,36,80.3,80.3,80.3s80.3-36,80.3-80.3C306.7,292.5,290.5,266.6,266.5,252.7z"/>
<path class="st3" d="M228.6,50c-20.9,0-37.9,17-37.9,37.9c0,8.9,0,43.8,0,84.8h75.9c0-42.6,0-80.1,0-84.8
	C266.5,67,249.5,50,228.6,50z"/>
<path class="st4" d="M239.7,208.4c-3.7,0-6.7,3-6.7,6.7c0,3.7,3,6.7,6.7,6.7h26.8v-13.4H239.7z"/>
<path class="st4" d="M239.7,172.7c-3.7,0-6.7,3-6.7,6.7s3,6.7,6.7,6.7h26.8v-13.4H239.7z"/>
<path class="st4" d="M239.7,244.1c-3.7,0-6.7,3-6.7,6.7c0,3.7,3,6.7,6.7,6.7h26.8v-13.4H239.7z"/>
<path class="st5" d="M239.7,137c-3.7,0-6.7,3-6.7,6.7c0,3.7,3,6.7,6.7,6.7h26.8V137H239.7z"/>
<path class="st5" d="M239.7,101.3c-3.7,0-6.7,3-6.7,6.7c0,3.7,3,6.7,6.7,6.7h26.8v-13.4H239.7z"/>
<path class="st6" d="M279.9,244.1h-13.4c-3.7,0-6.7,3-6.7,6.7s3,6.7,6.7,6.7h13.4c3.7,0,6.7-3,6.7-6.7S283.6,244.1,279.9,244.1z"/>
<path class="st6" d="M279.9,101.3h-13.4c-3.7,0-6.7,3-6.7,6.7s3,6.7,6.7,6.7h13.4c3.7,0,6.7-3,6.7-6.7S283.6,101.3,279.9,101.3z"/>
<path class="st6" d="M279.9,137h-13.4c-3.7,0-6.7,3-6.7,6.7c0,3.7,3,6.7,6.7,6.7h13.4c3.7,0,6.7-3,6.7-6.7
	C286.6,140,283.6,137,279.9,137z"/>
<path class="st6" d="M279.9,172.7h-13.4c-3.7,0-6.7,3-6.7,6.7s3,6.7,6.7,6.7h13.4c3.7,0,6.7-3,6.7-6.7S283.6,172.7,279.9,172.7z"/>
<path class="st6" d="M279.9,208.4h-13.4c-3.7,0-6.7,3-6.7,6.7c0,3.7,3,6.7,6.7,6.7h13.4c3.7,0,6.7-3,6.7-6.7
	C286.6,211.4,283.6,208.4,279.9,208.4z"/>
<path class="st6" d="M273.2,249v-161c0-24.6-20-44.6-44.6-44.6c-24.6,0-44.6,20-44.6,44.6v158.4c-27.6,15.4-44.6,44.1-44.6,75.9
	c0,48,39,87,87,87s87-39,87-87C313.4,292.6,298.1,264.9,273.2,249z M226.3,395.9c-40.6,0-73.6-33-73.6-73.6
	c0-28.1,15.7-53.3,40.9-65.9c2.3-1.1,3.7-3.5,3.7-6V87.9c0-17.2,14-31.2,31.2-31.2c17.2,0,31.2,14,31.2,31.2v164.8
	c0,2.4,1.3,4.6,3.3,5.8c22.7,13.2,36.8,37.6,36.8,63.7C300,362.8,266.9,395.9,226.3,395.9z"/>
</svg>
