<?xml version="1.0" encoding="utf-8"?>
<!-- Generator: Adobe Illustrator 26.0.1, SVG Export Plug-In . SVG Version: 6.00 Build 0)  -->
<svg version="1.1" id="Layer_1" xmlns="http://www.w3.org/2000/svg" xmlns:xlink="http://www.w3.org/1999/xlink" x="0px" y="0px"
	 viewBox="0 0 452 452" style="enable-background:new 0 0 452 452;" xml:space="preserve">
<style type="text/css">
	.st0{opacity:0.3;enable-background:new    ;}
	.st1{fill:#F2F2F2;}
	.st2{fill:#40396E;}
	.st3{fill:#96C362;}
	.st4{opacity:0.41;fill:#5B5682;}
</style>
<path class="st0" d="M383.8,103.37c0,0-13.71-14.64-14.35-14.02c-30.89,29.94-288.09,275.2-269.05,290.88l0.48,1.48
	c42.11,39.19,101.97,58.09,158.98,50.61c45.18-5.39,88.06-27.25,119.3-60.29c33.5-34.98,53.43-82.57,54.61-131.01
	C435.45,191.04,417.49,140.42,383.8,103.37z"/>
<path class="st1" d="M419.7,181.01C388.65,44.51,226.21-17.68,111.92,63.13C4.33,137.11-1.41,298.58,100.4,380.23
	C248.78,498.32,460.65,366.17,419.7,181.01z"/>
<path class="st2" d="M397.54,185.56C326-59.97-26.99,59.66,65.09,297.87C154.41,490.12,443.17,392.44,397.54,185.56z"/>
<path class="st3" d="M374.82,160.29c-11.94-27.01-31.39-50.63-55.58-67.55c-27.06-19.15-60.13-29.52-93.27-29.44
	c-20.76,0.15-41.68,3.72-60.86,11.82c-34.39,13.87-63.65,39.87-81.58,72.32c-20.55,36.88-25.74,81.9-14.18,122.5
	c7.7,27.67,23.03,53.12,43.71,73.03c18.56,17.97,41.45,31.44,66.19,38.86c24.77,7.47,51.34,8.84,76.76,4.07
	c46.43-8.42,88.22-38.46,111.38-79.52C392.83,262.51,395.62,206.52,374.82,160.29z"/>
<path class="st1" d="M357.96,207.02c-4.34-31.39-20.53-60.86-44.43-81.61c-23.96-21.03-55.66-32.85-87.53-32.76
	c-28.06-0.02-56.05,9.05-78.64,25.71c-15.6,11.34-28.58,26.17-38.01,42.97l-0.13,0.26c-12.98,23.46-18.59,50.87-15.89,77.54
	c2.91,31.13,17.41,60.96,39.93,82.63c20.21,19.62,46.76,32.62,74.69,36.33c28.02,3.86,57.25-1.43,82.03-15.11
	c24.64-13.44,44.81-34.89,56.71-60.32C357.75,259.27,361.65,232.61,357.96,207.02z"/>
<path class="st4" d="M226,92.65c-0.02-9.78,0.03-19.57-0.03-29.35c-20.76,0.15-41.68,3.72-60.86,11.82
	c-34.39,13.87-63.65,39.87-81.58,72.32c8.74,4.37,17.03,9.61,25.82,13.89l-0.13,0.26c9.74,5.08,19.21,10.65,28.92,15.78
	c2.13-1.3,52.74,27.65,75.7,39.42c3.48-2.51,7.79-3.73,12.13-3.78C226.04,174.61,225.98,131.06,226,92.65z"/>
<path class="st2" d="M289.35,205.44c-1.16-3.15-4.93-5.1-8.14-4.01c-13.75,4.25-27.43,8.72-41.18,12.97
	c-3.61-3.93-8.66-6.5-14.06-6.54c-4.34,0.05-8.4,1.8-11.88,4.31c-22.96-11.77-45.81-23.76-68.8-35.48c-2.3-1.26-5.02-0.62-7.15,0.68
	c-2.26,2.05-3.35,5.5-1.86,8.32c1.15,2.61,3.99,3.55,6.32,4.8c21.77,11.27,43.53,22.54,65.32,33.77c-0.4,6.02,2.05,12.23,6.9,15.92
	c5.91,4.84,14.95,5.17,21.23,0.83c4.64-3.01,7.42-8.23,8.09-13.65c13.51-4.26,27.03-8.52,40.52-12.84
	C288.5,213.61,290.94,209.11,289.35,205.44z"/>
</svg>
